<mxfile host="app.diagrams.net" modified="2023-11-28T09:49:40.096Z" agent="Mozilla/5.0 (Macintosh; Intel Mac OS X 10_15_7) AppleWebKit/605.1.15 (KHTML, like Gecko) Version/17.1 Safari/605.1.15" etag="u95qzY4nqooFDj8B2X_U" version="22.1.4" type="github">
  <diagram id="C5RBs43oDa-KdzZeNtuy" name="Page-1">
    <mxGraphModel dx="2156" dy="1120" grid="1" gridSize="10" guides="1" tooltips="1" connect="1" arrows="1" fold="1" page="1" pageScale="1" pageWidth="1600" pageHeight="900" math="0" shadow="0">
      <root>
        <mxCell id="WIyWlLk6GJQsqaUBKTNV-0" />
        <mxCell id="WIyWlLk6GJQsqaUBKTNV-1" parent="WIyWlLk6GJQsqaUBKTNV-0" />
        <mxCell id="0Vc-DOtmJBYtcWFMjAWh-9" value="" style="group" vertex="1" connectable="0" parent="WIyWlLk6GJQsqaUBKTNV-1">
          <mxGeometry x="40" y="30" width="1140" height="840" as="geometry" />
        </mxCell>
        <mxCell id="aH96cFNIvQmzftlEokGr-0" value="&lt;font style=&quot;font-size: 18px;&quot;&gt;&lt;b&gt;{myssembly}.fa*&lt;/b&gt;&lt;/font&gt;" style="shape=parallelogram;html=1;strokeWidth=2;perimeter=parallelogramPerimeter;whiteSpace=wrap;rounded=1;arcSize=12;size=0.23;strokeColor=#000000;fillColor=#FF5C5C;" parent="0Vc-DOtmJBYtcWFMjAWh-9" vertex="1">
          <mxGeometry x="301.9516728624535" y="271.1121212121212" width="254.27509293680296" height="84.19090909090909" as="geometry" />
        </mxCell>
        <mxCell id="aH96cFNIvQmzftlEokGr-7" value="&lt;font style=&quot;font-size: 18px;&quot;&gt;&lt;b&gt;{my assembly}.&lt;br&gt;nonTIRpositions&lt;br&gt;HMM.output.txt&lt;/b&gt;&lt;/font&gt;" style="strokeWidth=2;html=1;shape=mxgraph.flowchart.document2;whiteSpace=wrap;size=0.25;fillColor=#00FF00;" parent="0Vc-DOtmJBYtcWFMjAWh-9" vertex="1">
          <mxGeometry x="937.6394052044609" y="379.6969696969697" width="158.92193308550185" height="116.66666666666666" as="geometry" />
        </mxCell>
        <mxCell id="aH96cFNIvQmzftlEokGr-8" value="&lt;font style=&quot;font-size: 18px;&quot;&gt;&lt;b&gt;replant_AA_over _{myassembly} .paf&lt;/b&gt;&lt;/font&gt;" style="strokeWidth=2;html=1;shape=mxgraph.flowchart.document2;whiteSpace=wrap;size=0.25;fillColor=#1F87FF;" parent="0Vc-DOtmJBYtcWFMjAWh-9" vertex="1">
          <mxGeometry x="23.83828996282528" y="382.8787878787879" width="164.21933085501857" height="116.66666666666666" as="geometry" />
        </mxCell>
        <mxCell id="aH96cFNIvQmzftlEokGr-9" value="&lt;font style=&quot;font-size: 18px;&quot;&gt;&lt;b&gt;&lt;br&gt;&lt;br&gt;RefPlantNLR&lt;br&gt;v.20200258.fasta&lt;/b&gt;&lt;/font&gt;" style="strokeWidth=2;html=1;shape=mxgraph.flowchart.database;whiteSpace=wrap;fillColor=#1F87FF;" parent="0Vc-DOtmJBYtcWFMjAWh-9" vertex="1">
          <mxGeometry x="26.486988847583643" y="59.39393939393939" width="158.92193308550185" height="169.6969696969697" as="geometry" />
        </mxCell>
        <mxCell id="aH96cFNIvQmzftlEokGr-12" value="&lt;font size=&quot;4&quot;&gt;&lt;b&gt;&lt;br&gt;protein_db.fasta&lt;/b&gt;&lt;/font&gt;" style="strokeWidth=2;html=1;shape=mxgraph.flowchart.database;whiteSpace=wrap;fillColor=#FF99FF;" parent="0Vc-DOtmJBYtcWFMjAWh-9" vertex="1">
          <mxGeometry x="677.0074349442378" y="379.6969696969697" width="158.92193308550185" height="84.84848484848484" as="geometry" />
        </mxCell>
        <mxCell id="aH96cFNIvQmzftlEokGr-13" value="&lt;font style=&quot;font-size: 18px;&quot;&gt;&lt;b&gt;&lt;br&gt;&lt;br&gt;EG_nonTIRhmm .txt&lt;/b&gt;&lt;/font&gt;" style="strokeWidth=2;html=1;shape=mxgraph.flowchart.database;whiteSpace=wrap;fillColor=#00FF00;" parent="0Vc-DOtmJBYtcWFMjAWh-9" vertex="1">
          <mxGeometry x="937.6394052044609" y="59.39393939393939" width="158.92193308550185" height="169.6969696969697" as="geometry" />
        </mxCell>
        <mxCell id="aH96cFNIvQmzftlEokGr-15" value="&lt;font style=&quot;font-size: 18px;&quot;&gt;&lt;b&gt;miniprot&lt;/b&gt;&lt;/font&gt;" style="rounded=1;whiteSpace=wrap;html=1;absoluteArcSize=1;arcSize=14;strokeWidth=2;fillColor=#1F87FF;" parent="0Vc-DOtmJBYtcWFMjAWh-9" vertex="1">
          <mxGeometry x="26.486988847583643" y="282.77878787878785" width="158.92193308550185" height="63.63636363636363" as="geometry" />
        </mxCell>
        <mxCell id="aH96cFNIvQmzftlEokGr-22" style="edgeStyle=orthogonalEdgeStyle;rounded=0;orthogonalLoop=1;jettySize=auto;html=1;entryX=1;entryY=0.5;entryDx=0;entryDy=0;strokeColor=#FF5C5C;" parent="0Vc-DOtmJBYtcWFMjAWh-9" source="aH96cFNIvQmzftlEokGr-0" target="aH96cFNIvQmzftlEokGr-15" edge="1">
          <mxGeometry relative="1" as="geometry">
            <mxPoint x="217.19330855018586" y="314.59696969696967" as="targetPoint" />
          </mxGeometry>
        </mxCell>
        <mxCell id="aH96cFNIvQmzftlEokGr-24" style="edgeStyle=orthogonalEdgeStyle;rounded=0;orthogonalLoop=1;jettySize=auto;html=1;exitX=0.5;exitY=1;exitDx=0;exitDy=0;exitPerimeter=0;entryX=0.5;entryY=0;entryDx=0;entryDy=0;fillColor=#1F87FF;strokeColor=#1F87FF;" parent="0Vc-DOtmJBYtcWFMjAWh-9" source="aH96cFNIvQmzftlEokGr-9" target="aH96cFNIvQmzftlEokGr-15" edge="1">
          <mxGeometry relative="1" as="geometry" />
        </mxCell>
        <mxCell id="aH96cFNIvQmzftlEokGr-16" value="&lt;font style=&quot;font-size: 18px;&quot;&gt;&lt;b&gt;nhmmer&lt;/b&gt;&lt;/font&gt;" style="rounded=1;whiteSpace=wrap;html=1;absoluteArcSize=1;arcSize=14;strokeWidth=2;fillColor=#00FF00;" parent="0Vc-DOtmJBYtcWFMjAWh-9" vertex="1">
          <mxGeometry x="938.6988847583643" y="282.77878787878785" width="157.8624535315985" height="63.63636363636363" as="geometry" />
        </mxCell>
        <mxCell id="aH96cFNIvQmzftlEokGr-23" style="edgeStyle=orthogonalEdgeStyle;rounded=0;orthogonalLoop=1;jettySize=auto;html=1;entryX=0;entryY=0.5;entryDx=0;entryDy=0;strokeColor=#FF5C5C;" parent="0Vc-DOtmJBYtcWFMjAWh-9" source="aH96cFNIvQmzftlEokGr-0" target="aH96cFNIvQmzftlEokGr-16" edge="1">
          <mxGeometry relative="1" as="geometry" />
        </mxCell>
        <mxCell id="aH96cFNIvQmzftlEokGr-25" style="edgeStyle=orthogonalEdgeStyle;rounded=0;orthogonalLoop=1;jettySize=auto;html=1;exitX=0.5;exitY=1;exitDx=0;exitDy=0;exitPerimeter=0;entryX=0.5;entryY=0;entryDx=0;entryDy=0;fillColor=#00FF00;strokeColor=#00FF00;" parent="0Vc-DOtmJBYtcWFMjAWh-9" source="aH96cFNIvQmzftlEokGr-13" target="aH96cFNIvQmzftlEokGr-16" edge="1">
          <mxGeometry relative="1" as="geometry" />
        </mxCell>
        <mxCell id="aH96cFNIvQmzftlEokGr-20" value="&lt;font style=&quot;font-size: 18px;&quot;&gt;&lt;b&gt;RNAseq data&amp;nbsp;&lt;br&gt;10 samples&lt;/b&gt;&lt;br&gt;&lt;/font&gt;" style="strokeWidth=2;html=1;shape=mxgraph.flowchart.multi-document;whiteSpace=wrap;fillColor=#FF99FF;" parent="0Vc-DOtmJBYtcWFMjAWh-9" vertex="1">
          <mxGeometry y="591.8181818181818" width="211.89591078066914" height="95.45454545454545" as="geometry" />
        </mxCell>
        <mxCell id="aH96cFNIvQmzftlEokGr-26" style="edgeStyle=orthogonalEdgeStyle;rounded=0;orthogonalLoop=1;jettySize=auto;html=1;exitX=0.5;exitY=1;exitDx=0;exitDy=0;entryX=0.5;entryY=0;entryDx=0;entryDy=0;entryPerimeter=0;fillColor=#1F87FF;strokeColor=#1F87FF;" parent="0Vc-DOtmJBYtcWFMjAWh-9" source="aH96cFNIvQmzftlEokGr-15" target="aH96cFNIvQmzftlEokGr-8" edge="1">
          <mxGeometry relative="1" as="geometry" />
        </mxCell>
        <mxCell id="aH96cFNIvQmzftlEokGr-27" style="edgeStyle=orthogonalEdgeStyle;rounded=0;orthogonalLoop=1;jettySize=auto;html=1;entryX=0.5;entryY=0;entryDx=0;entryDy=0;entryPerimeter=0;fillColor=#00FF00;strokeColor=#00FF00;" parent="0Vc-DOtmJBYtcWFMjAWh-9" source="aH96cFNIvQmzftlEokGr-16" target="aH96cFNIvQmzftlEokGr-7" edge="1">
          <mxGeometry relative="1" as="geometry" />
        </mxCell>
        <mxCell id="aH96cFNIvQmzftlEokGr-30" value="&lt;font style=&quot;font-size: 18px;&quot;&gt;&lt;b&gt;bowtie2&lt;br&gt;samtools&lt;/b&gt;&lt;br&gt;&lt;/font&gt;" style="rounded=1;whiteSpace=wrap;html=1;absoluteArcSize=1;arcSize=14;strokeWidth=2;fillColor=#FF99FF;" parent="0Vc-DOtmJBYtcWFMjAWh-9" vertex="1">
          <mxGeometry x="348.03903345724905" y="607.7272727272727" width="158.92193308550185" height="63.63636363636363" as="geometry" />
        </mxCell>
        <mxCell id="aH96cFNIvQmzftlEokGr-31" style="edgeStyle=orthogonalEdgeStyle;rounded=0;orthogonalLoop=1;jettySize=auto;html=1;exitX=0.5;exitY=1;exitDx=0;exitDy=0;strokeColor=#FF5C5C;" parent="0Vc-DOtmJBYtcWFMjAWh-9" source="aH96cFNIvQmzftlEokGr-0" target="aH96cFNIvQmzftlEokGr-30" edge="1">
          <mxGeometry relative="1" as="geometry" />
        </mxCell>
        <mxCell id="aH96cFNIvQmzftlEokGr-32" style="edgeStyle=orthogonalEdgeStyle;rounded=0;orthogonalLoop=1;jettySize=auto;html=1;entryX=0;entryY=0.5;entryDx=0;entryDy=0;strokeColor=#FF99FF;" parent="0Vc-DOtmJBYtcWFMjAWh-9" source="aH96cFNIvQmzftlEokGr-20" target="aH96cFNIvQmzftlEokGr-30" edge="1">
          <mxGeometry relative="1" as="geometry" />
        </mxCell>
        <mxCell id="aH96cFNIvQmzftlEokGr-35" value="&lt;font style=&quot;font-size: 18px;&quot;&gt;&lt;b&gt;{myassembly}&lt;br&gt;_rna.bam&lt;/b&gt;&lt;/font&gt;" style="strokeWidth=2;html=1;shape=mxgraph.flowchart.document2;whiteSpace=wrap;size=0.25;fillColor=#FF99FF;" parent="0Vc-DOtmJBYtcWFMjAWh-9" vertex="1">
          <mxGeometry x="346.449814126394" y="729.6969696969696" width="161.57063197026022" height="95.45454545454545" as="geometry" />
        </mxCell>
        <mxCell id="aH96cFNIvQmzftlEokGr-36" style="edgeStyle=orthogonalEdgeStyle;rounded=0;orthogonalLoop=1;jettySize=auto;html=1;strokeColor=#FF99FF;" parent="0Vc-DOtmJBYtcWFMjAWh-9" source="aH96cFNIvQmzftlEokGr-30" target="aH96cFNIvQmzftlEokGr-35" edge="1">
          <mxGeometry relative="1" as="geometry" />
        </mxCell>
        <mxCell id="aH96cFNIvQmzftlEokGr-40" value="" style="strokeWidth=2;html=1;shape=mxgraph.flowchart.merge_or_storage;whiteSpace=wrap;fillColor=#FF99FF;" parent="0Vc-DOtmJBYtcWFMjAWh-9" vertex="1">
          <mxGeometry x="726.8029739776952" y="250.96060606060604" width="61.44981412639405" height="44.54545454545455" as="geometry" />
        </mxCell>
        <mxCell id="aH96cFNIvQmzftlEokGr-41" style="edgeStyle=orthogonalEdgeStyle;rounded=0;orthogonalLoop=1;jettySize=auto;html=1;entryX=0.5;entryY=0;entryDx=0;entryDy=0;entryPerimeter=0;strokeColor=#FF99FF;" parent="0Vc-DOtmJBYtcWFMjAWh-9" source="aH96cFNIvQmzftlEokGr-40" target="aH96cFNIvQmzftlEokGr-12" edge="1">
          <mxGeometry relative="1" as="geometry" />
        </mxCell>
        <mxCell id="aH96cFNIvQmzftlEokGr-42" value="&lt;font style=&quot;font-size: 18px;&quot;&gt;&lt;b&gt;RefPlantNLR&lt;br&gt;Musa acuminata_v4.ggf3&lt;br&gt;&amp;nbsp;Swiss prot&amp;nbsp;&lt;/b&gt;&lt;br&gt;&lt;/font&gt;" style="strokeWidth=2;html=1;shape=mxgraph.flowchart.start_1;whiteSpace=wrap;fillColor=#FF99FF;" parent="0Vc-DOtmJBYtcWFMjAWh-9" vertex="1">
          <mxGeometry x="635.6877323420074" y="80.6060606060606" width="243.68029739776952" height="116.66666666666666" as="geometry" />
        </mxCell>
        <mxCell id="aH96cFNIvQmzftlEokGr-44" value="" style="endArrow=none;html=1;rounded=0;entryX=0.5;entryY=1;entryDx=0;entryDy=0;entryPerimeter=0;exitX=0.5;exitY=0;exitDx=0;exitDy=0;exitPerimeter=0;strokeColor=#FF99FF;" parent="0Vc-DOtmJBYtcWFMjAWh-9" source="aH96cFNIvQmzftlEokGr-40" target="aH96cFNIvQmzftlEokGr-42" edge="1">
          <mxGeometry width="50" height="50" relative="1" as="geometry">
            <mxPoint x="665.3531598513011" y="552.5757575757575" as="sourcePoint" />
            <mxPoint x="718.3271375464684" y="499.5454545454545" as="targetPoint" />
          </mxGeometry>
        </mxCell>
        <mxCell id="aH96cFNIvQmzftlEokGr-46" value="&lt;font style=&quot;font-size: 18px;&quot;&gt;&lt;b&gt;braker3&lt;/b&gt;&lt;br&gt;&lt;/font&gt;" style="rounded=1;whiteSpace=wrap;html=1;absoluteArcSize=1;arcSize=14;strokeWidth=2;fillColor=#FF99FF;" parent="0Vc-DOtmJBYtcWFMjAWh-9" vertex="1">
          <mxGeometry x="677.0074349442378" y="744.5454545454545" width="158.92193308550185" height="63.63636363636363" as="geometry" />
        </mxCell>
        <mxCell id="aH96cFNIvQmzftlEokGr-49" style="edgeStyle=orthogonalEdgeStyle;rounded=0;orthogonalLoop=1;jettySize=auto;html=1;entryX=0;entryY=0.25;entryDx=0;entryDy=0;strokeColor=#FF5C5C;exitX=1;exitY=1;exitDx=0;exitDy=0;" parent="0Vc-DOtmJBYtcWFMjAWh-9" source="aH96cFNIvQmzftlEokGr-0" target="aH96cFNIvQmzftlEokGr-46" edge="1">
          <mxGeometry relative="1" as="geometry" />
        </mxCell>
        <mxCell id="aH96cFNIvQmzftlEokGr-48" style="edgeStyle=orthogonalEdgeStyle;rounded=0;orthogonalLoop=1;jettySize=auto;html=1;entryX=0.5;entryY=0;entryDx=0;entryDy=0;strokeColor=#FF99FF;" parent="0Vc-DOtmJBYtcWFMjAWh-9" source="aH96cFNIvQmzftlEokGr-12" target="aH96cFNIvQmzftlEokGr-46" edge="1">
          <mxGeometry relative="1" as="geometry">
            <mxPoint x="757.5278810408922" y="748.7878787878788" as="targetPoint" />
          </mxGeometry>
        </mxCell>
        <mxCell id="0Vc-DOtmJBYtcWFMjAWh-1" value="&lt;font style=&quot;font-size: 18px;&quot;&gt;&lt;b&gt;braker.gtf&lt;br&gt;braker.codingseq&lt;br&gt;braker.gff3&lt;/b&gt;&lt;br&gt;&lt;/font&gt;" style="strokeWidth=2;html=1;shape=mxgraph.flowchart.terminator;whiteSpace=wrap;fillColor=#FF99FF;" vertex="1" parent="0Vc-DOtmJBYtcWFMjAWh-9">
          <mxGeometry x="938.6988847583643" y="712.7272727272727" width="201.30111524163567" height="127.27272727272727" as="geometry" />
        </mxCell>
        <mxCell id="0Vc-DOtmJBYtcWFMjAWh-2" value="&lt;font style=&quot;font-size: 18px;&quot;&gt;&lt;b&gt;reads&amp;nbsp;&lt;/b&gt;&lt;/font&gt;&lt;font size=&quot;4&quot;&gt;&lt;b&gt;accessions&lt;/b&gt;&lt;/font&gt;" style="strokeWidth=2;html=1;shape=mxgraph.flowchart.start_1;whiteSpace=wrap;fillColor=#FF5C5C;" vertex="1" parent="0Vc-DOtmJBYtcWFMjAWh-9">
          <mxGeometry x="320.17472118959114" width="219.61951672862452" height="74.24242424242424" as="geometry" />
        </mxCell>
        <mxCell id="aH96cFNIvQmzftlEokGr-47" style="edgeStyle=orthogonalEdgeStyle;rounded=0;orthogonalLoop=1;jettySize=auto;html=1;entryX=0;entryY=0.5;entryDx=0;entryDy=0;strokeColor=#FF99FF;" parent="0Vc-DOtmJBYtcWFMjAWh-9" source="aH96cFNIvQmzftlEokGr-35" target="aH96cFNIvQmzftlEokGr-46" edge="1">
          <mxGeometry relative="1" as="geometry" />
        </mxCell>
        <mxCell id="0Vc-DOtmJBYtcWFMjAWh-7" style="edgeStyle=orthogonalEdgeStyle;rounded=0;orthogonalLoop=1;jettySize=auto;html=1;exitX=0.5;exitY=1;exitDx=0;exitDy=0;entryX=0.5;entryY=0;entryDx=0;entryDy=0;strokeColor=#FF5C5C;" edge="1" parent="0Vc-DOtmJBYtcWFMjAWh-9" source="0Vc-DOtmJBYtcWFMjAWh-5" target="aH96cFNIvQmzftlEokGr-0">
          <mxGeometry relative="1" as="geometry" />
        </mxCell>
        <mxCell id="0Vc-DOtmJBYtcWFMjAWh-5" value="&lt;b style=&quot;border-color: var(--border-color); font-size: 18px;&quot;&gt;SPAdes&lt;br style=&quot;border-color: var(--border-color);&quot;&gt;&lt;br style=&quot;border-color: var(--border-color);&quot;&gt;Soap correction + Masurca&lt;/b&gt;" style="rounded=1;whiteSpace=wrap;html=1;absoluteArcSize=1;arcSize=14;strokeWidth=2;fillColor=#FF5C5C;" vertex="1" parent="0Vc-DOtmJBYtcWFMjAWh-9">
          <mxGeometry x="298.3388475836431" y="123.03030303030303" width="261.1617100371747" height="84.84848484848484" as="geometry" />
        </mxCell>
        <mxCell id="aH96cFNIvQmzftlEokGr-55" style="edgeStyle=orthogonalEdgeStyle;rounded=0;orthogonalLoop=1;jettySize=auto;html=1;entryX=0;entryY=0.5;entryDx=0;entryDy=0;entryPerimeter=0;strokeColor=#FF99FF;" parent="0Vc-DOtmJBYtcWFMjAWh-9" source="aH96cFNIvQmzftlEokGr-46" edge="1" target="0Vc-DOtmJBYtcWFMjAWh-1">
          <mxGeometry relative="1" as="geometry">
            <mxPoint x="980.0185873605948" y="776.3636363636364" as="targetPoint" />
          </mxGeometry>
        </mxCell>
        <mxCell id="0Vc-DOtmJBYtcWFMjAWh-6" style="edgeStyle=orthogonalEdgeStyle;rounded=0;orthogonalLoop=1;jettySize=auto;html=1;exitX=0.5;exitY=1;exitDx=0;exitDy=0;exitPerimeter=0;entryX=0.5;entryY=0;entryDx=0;entryDy=0;strokeColor=#FF5C5C;" edge="1" parent="0Vc-DOtmJBYtcWFMjAWh-9" source="0Vc-DOtmJBYtcWFMjAWh-2" target="0Vc-DOtmJBYtcWFMjAWh-5">
          <mxGeometry relative="1" as="geometry" />
        </mxCell>
      </root>
    </mxGraphModel>
  </diagram>
</mxfile>
